<mxfile host="app.diagrams.net" modified="2020-07-20T15:40:35.421Z" agent="5.0 (X11)" etag="43LDaSajxgx14WZvUlcA" version="13.4.9" type="github">
  <diagram id="46zG5Ii9FDocmxLWgqAN" name="Page-1">
    <mxGraphModel dx="1422" dy="794" grid="1" gridSize="10" guides="1" tooltips="1" connect="1" arrows="1" fold="1" page="1" pageScale="1" pageWidth="1100" pageHeight="850" math="0" shadow="0">
      <root>
        <mxCell id="0" />
        <mxCell id="1" parent="0" />
        <mxCell id="fLti0G6x-53o2jMvYhwN-89" value="" style="group" vertex="1" connectable="0" parent="1">
          <mxGeometry x="40" y="120" width="380" height="380" as="geometry" />
        </mxCell>
        <mxCell id="fLti0G6x-53o2jMvYhwN-2" value="" style="ellipse;whiteSpace=wrap;html=1;aspect=fixed;fillColor=#fa6800;strokeColor=#C73500;fontColor=#ffffff;strokeWidth=3;" vertex="1" parent="fLti0G6x-53o2jMvYhwN-89">
          <mxGeometry x="20" y="20" width="40" height="40" as="geometry" />
        </mxCell>
        <mxCell id="fLti0G6x-53o2jMvYhwN-17" style="edgeStyle=orthogonalEdgeStyle;rounded=0;orthogonalLoop=1;jettySize=auto;html=1;exitX=1;exitY=0.5;exitDx=0;exitDy=0;endArrow=none;endFill=0;strokeWidth=3;fillColor=#e51400;strokeColor=#B20000;" edge="1" parent="fLti0G6x-53o2jMvYhwN-89" source="fLti0G6x-53o2jMvYhwN-3">
          <mxGeometry relative="1" as="geometry">
            <mxPoint x="220" y="40" as="targetPoint" />
          </mxGeometry>
        </mxCell>
        <mxCell id="fLti0G6x-53o2jMvYhwN-3" value="" style="ellipse;whiteSpace=wrap;html=1;aspect=fixed;fillColor=#fa6800;strokeColor=#C73500;fontColor=#ffffff;strokeWidth=3;" vertex="1" parent="fLti0G6x-53o2jMvYhwN-89">
          <mxGeometry x="140" y="20" width="40" height="40" as="geometry" />
        </mxCell>
        <mxCell id="fLti0G6x-53o2jMvYhwN-12" style="edgeStyle=orthogonalEdgeStyle;rounded=0;orthogonalLoop=1;jettySize=auto;html=1;exitX=1;exitY=0.5;exitDx=0;exitDy=0;entryX=0;entryY=0.5;entryDx=0;entryDy=0;fillColor=#e51400;strokeColor=#B20000;endArrow=none;endFill=0;strokeWidth=3;" edge="1" parent="fLti0G6x-53o2jMvYhwN-89" source="fLti0G6x-53o2jMvYhwN-2" target="fLti0G6x-53o2jMvYhwN-3">
          <mxGeometry relative="1" as="geometry" />
        </mxCell>
        <mxCell id="fLti0G6x-53o2jMvYhwN-30" style="edgeStyle=orthogonalEdgeStyle;rounded=0;orthogonalLoop=1;jettySize=auto;html=1;endArrow=none;endFill=0;strokeWidth=3;fillColor=#e51400;strokeColor=#B20000;" edge="1" parent="fLti0G6x-53o2jMvYhwN-89" source="fLti0G6x-53o2jMvYhwN-4">
          <mxGeometry relative="1" as="geometry">
            <mxPoint x="300" y="40" as="targetPoint" />
          </mxGeometry>
        </mxCell>
        <mxCell id="fLti0G6x-53o2jMvYhwN-4" value="" style="ellipse;whiteSpace=wrap;html=1;aspect=fixed;fillColor=#fa6800;strokeColor=#C73500;fontColor=#ffffff;strokeWidth=3;" vertex="1" parent="fLti0G6x-53o2jMvYhwN-89">
          <mxGeometry x="340" y="20" width="40" height="40" as="geometry" />
        </mxCell>
        <mxCell id="fLti0G6x-53o2jMvYhwN-27" style="edgeStyle=orthogonalEdgeStyle;rounded=0;orthogonalLoop=1;jettySize=auto;html=1;exitX=0.5;exitY=1;exitDx=0;exitDy=0;endArrow=none;endFill=0;strokeWidth=3;fillColor=#e51400;strokeColor=#B20000;" edge="1" parent="fLti0G6x-53o2jMvYhwN-89" source="fLti0G6x-53o2jMvYhwN-5">
          <mxGeometry relative="1" as="geometry">
            <mxPoint x="40" y="220" as="targetPoint" />
          </mxGeometry>
        </mxCell>
        <mxCell id="fLti0G6x-53o2jMvYhwN-5" value="" style="ellipse;whiteSpace=wrap;html=1;aspect=fixed;fillColor=#fa6800;strokeColor=#C73500;fontColor=#ffffff;strokeWidth=3;" vertex="1" parent="fLti0G6x-53o2jMvYhwN-89">
          <mxGeometry x="20" y="140" width="40" height="40" as="geometry" />
        </mxCell>
        <mxCell id="fLti0G6x-53o2jMvYhwN-14" style="edgeStyle=orthogonalEdgeStyle;rounded=0;orthogonalLoop=1;jettySize=auto;html=1;exitX=0.5;exitY=1;exitDx=0;exitDy=0;entryX=0.5;entryY=0;entryDx=0;entryDy=0;endArrow=none;endFill=0;strokeWidth=3;fillColor=#e51400;strokeColor=#B20000;" edge="1" parent="fLti0G6x-53o2jMvYhwN-89" source="fLti0G6x-53o2jMvYhwN-2" target="fLti0G6x-53o2jMvYhwN-5">
          <mxGeometry relative="1" as="geometry" />
        </mxCell>
        <mxCell id="fLti0G6x-53o2jMvYhwN-18" style="edgeStyle=orthogonalEdgeStyle;rounded=0;orthogonalLoop=1;jettySize=auto;html=1;exitX=1;exitY=0.5;exitDx=0;exitDy=0;endArrow=none;endFill=0;strokeWidth=3;fillColor=#e51400;strokeColor=#B20000;" edge="1" parent="fLti0G6x-53o2jMvYhwN-89" source="fLti0G6x-53o2jMvYhwN-6">
          <mxGeometry relative="1" as="geometry">
            <mxPoint x="220" y="160" as="targetPoint" />
          </mxGeometry>
        </mxCell>
        <mxCell id="fLti0G6x-53o2jMvYhwN-26" style="edgeStyle=orthogonalEdgeStyle;rounded=0;orthogonalLoop=1;jettySize=auto;html=1;exitX=0.5;exitY=1;exitDx=0;exitDy=0;endArrow=none;endFill=0;strokeWidth=3;fillColor=#e51400;strokeColor=#B20000;" edge="1" parent="fLti0G6x-53o2jMvYhwN-89" source="fLti0G6x-53o2jMvYhwN-6">
          <mxGeometry relative="1" as="geometry">
            <mxPoint x="160" y="220" as="targetPoint" />
          </mxGeometry>
        </mxCell>
        <mxCell id="fLti0G6x-53o2jMvYhwN-6" value="" style="ellipse;whiteSpace=wrap;html=1;aspect=fixed;fillColor=#fa6800;strokeColor=#C73500;fontColor=#ffffff;strokeWidth=3;" vertex="1" parent="fLti0G6x-53o2jMvYhwN-89">
          <mxGeometry x="140" y="140" width="40" height="40" as="geometry" />
        </mxCell>
        <mxCell id="fLti0G6x-53o2jMvYhwN-16" style="edgeStyle=orthogonalEdgeStyle;rounded=0;orthogonalLoop=1;jettySize=auto;html=1;exitX=0.5;exitY=1;exitDx=0;exitDy=0;entryX=0.5;entryY=0;entryDx=0;entryDy=0;endArrow=none;endFill=0;strokeWidth=3;fillColor=#e51400;strokeColor=#B20000;" edge="1" parent="fLti0G6x-53o2jMvYhwN-89" source="fLti0G6x-53o2jMvYhwN-3" target="fLti0G6x-53o2jMvYhwN-6">
          <mxGeometry relative="1" as="geometry" />
        </mxCell>
        <mxCell id="fLti0G6x-53o2jMvYhwN-15" style="edgeStyle=orthogonalEdgeStyle;rounded=0;orthogonalLoop=1;jettySize=auto;html=1;exitX=1;exitY=0.5;exitDx=0;exitDy=0;entryX=0;entryY=0.5;entryDx=0;entryDy=0;endArrow=none;endFill=0;strokeWidth=3;fillColor=#e51400;strokeColor=#B20000;" edge="1" parent="fLti0G6x-53o2jMvYhwN-89" source="fLti0G6x-53o2jMvYhwN-5" target="fLti0G6x-53o2jMvYhwN-6">
          <mxGeometry relative="1" as="geometry" />
        </mxCell>
        <mxCell id="fLti0G6x-53o2jMvYhwN-21" style="edgeStyle=orthogonalEdgeStyle;rounded=0;orthogonalLoop=1;jettySize=auto;html=1;exitX=0;exitY=0.5;exitDx=0;exitDy=0;endArrow=none;endFill=0;strokeWidth=3;fillColor=#e51400;strokeColor=#B20000;" edge="1" parent="fLti0G6x-53o2jMvYhwN-89" source="fLti0G6x-53o2jMvYhwN-7">
          <mxGeometry relative="1" as="geometry">
            <mxPoint x="300" y="160" as="targetPoint" />
          </mxGeometry>
        </mxCell>
        <mxCell id="fLti0G6x-53o2jMvYhwN-23" style="edgeStyle=orthogonalEdgeStyle;rounded=0;orthogonalLoop=1;jettySize=auto;html=1;endArrow=none;endFill=0;strokeWidth=3;fillColor=#e51400;strokeColor=#B20000;" edge="1" parent="fLti0G6x-53o2jMvYhwN-89" source="fLti0G6x-53o2jMvYhwN-7">
          <mxGeometry relative="1" as="geometry">
            <mxPoint x="360" y="220" as="targetPoint" />
          </mxGeometry>
        </mxCell>
        <mxCell id="fLti0G6x-53o2jMvYhwN-7" value="" style="ellipse;whiteSpace=wrap;html=1;aspect=fixed;fillColor=#fa6800;strokeColor=#C73500;fontColor=#ffffff;strokeWidth=3;" vertex="1" parent="fLti0G6x-53o2jMvYhwN-89">
          <mxGeometry x="340" y="140" width="40" height="40" as="geometry" />
        </mxCell>
        <mxCell id="fLti0G6x-53o2jMvYhwN-22" style="edgeStyle=orthogonalEdgeStyle;rounded=0;orthogonalLoop=1;jettySize=auto;html=1;entryX=0.5;entryY=0;entryDx=0;entryDy=0;endArrow=none;endFill=0;strokeWidth=3;fillColor=#e51400;strokeColor=#B20000;" edge="1" parent="fLti0G6x-53o2jMvYhwN-89" source="fLti0G6x-53o2jMvYhwN-4" target="fLti0G6x-53o2jMvYhwN-7">
          <mxGeometry relative="1" as="geometry" />
        </mxCell>
        <mxCell id="fLti0G6x-53o2jMvYhwN-28" style="edgeStyle=orthogonalEdgeStyle;rounded=0;orthogonalLoop=1;jettySize=auto;html=1;endArrow=none;endFill=0;strokeWidth=3;fillColor=#e51400;strokeColor=#B20000;" edge="1" parent="fLti0G6x-53o2jMvYhwN-89" source="fLti0G6x-53o2jMvYhwN-8">
          <mxGeometry relative="1" as="geometry">
            <mxPoint x="40" y="300" as="targetPoint" />
          </mxGeometry>
        </mxCell>
        <mxCell id="fLti0G6x-53o2jMvYhwN-8" value="" style="ellipse;whiteSpace=wrap;html=1;aspect=fixed;fillColor=#fa6800;strokeColor=#C73500;fontColor=#ffffff;strokeWidth=3;" vertex="1" parent="fLti0G6x-53o2jMvYhwN-89">
          <mxGeometry x="20" y="340" width="40" height="40" as="geometry" />
        </mxCell>
        <mxCell id="fLti0G6x-53o2jMvYhwN-19" style="edgeStyle=orthogonalEdgeStyle;rounded=0;orthogonalLoop=1;jettySize=auto;html=1;exitX=1;exitY=0.5;exitDx=0;exitDy=0;endArrow=none;endFill=0;strokeWidth=3;fillColor=#e51400;strokeColor=#B20000;" edge="1" parent="fLti0G6x-53o2jMvYhwN-89" source="fLti0G6x-53o2jMvYhwN-9">
          <mxGeometry relative="1" as="geometry">
            <mxPoint x="220" y="360" as="targetPoint" />
          </mxGeometry>
        </mxCell>
        <mxCell id="fLti0G6x-53o2jMvYhwN-29" style="edgeStyle=orthogonalEdgeStyle;rounded=0;orthogonalLoop=1;jettySize=auto;html=1;endArrow=none;endFill=0;strokeWidth=3;fillColor=#e51400;strokeColor=#B20000;" edge="1" parent="fLti0G6x-53o2jMvYhwN-89" source="fLti0G6x-53o2jMvYhwN-9">
          <mxGeometry relative="1" as="geometry">
            <mxPoint x="160" y="300" as="targetPoint" />
          </mxGeometry>
        </mxCell>
        <mxCell id="fLti0G6x-53o2jMvYhwN-9" value="" style="ellipse;whiteSpace=wrap;html=1;aspect=fixed;fillColor=#fa6800;strokeColor=#C73500;fontColor=#ffffff;strokeWidth=3;" vertex="1" parent="fLti0G6x-53o2jMvYhwN-89">
          <mxGeometry x="140" y="340" width="40" height="40" as="geometry" />
        </mxCell>
        <mxCell id="fLti0G6x-53o2jMvYhwN-25" style="edgeStyle=orthogonalEdgeStyle;rounded=0;orthogonalLoop=1;jettySize=auto;html=1;entryX=0;entryY=0.5;entryDx=0;entryDy=0;endArrow=none;endFill=0;strokeWidth=3;fillColor=#e51400;strokeColor=#B20000;" edge="1" parent="fLti0G6x-53o2jMvYhwN-89" source="fLti0G6x-53o2jMvYhwN-8" target="fLti0G6x-53o2jMvYhwN-9">
          <mxGeometry relative="1" as="geometry" />
        </mxCell>
        <mxCell id="fLti0G6x-53o2jMvYhwN-20" style="edgeStyle=orthogonalEdgeStyle;rounded=0;orthogonalLoop=1;jettySize=auto;html=1;exitX=0;exitY=0.5;exitDx=0;exitDy=0;endArrow=none;endFill=0;strokeWidth=3;fillColor=#e51400;strokeColor=#B20000;" edge="1" parent="fLti0G6x-53o2jMvYhwN-89" source="fLti0G6x-53o2jMvYhwN-10">
          <mxGeometry relative="1" as="geometry">
            <mxPoint x="300" y="360" as="targetPoint" />
          </mxGeometry>
        </mxCell>
        <mxCell id="fLti0G6x-53o2jMvYhwN-24" style="edgeStyle=orthogonalEdgeStyle;rounded=0;orthogonalLoop=1;jettySize=auto;html=1;exitX=0.5;exitY=0;exitDx=0;exitDy=0;endArrow=none;endFill=0;strokeWidth=3;fillColor=#e51400;strokeColor=#B20000;" edge="1" parent="fLti0G6x-53o2jMvYhwN-89" source="fLti0G6x-53o2jMvYhwN-10">
          <mxGeometry relative="1" as="geometry">
            <mxPoint x="360" y="300" as="targetPoint" />
          </mxGeometry>
        </mxCell>
        <mxCell id="fLti0G6x-53o2jMvYhwN-10" value="" style="ellipse;whiteSpace=wrap;html=1;aspect=fixed;fillColor=#fa6800;strokeColor=#C73500;fontColor=#ffffff;strokeWidth=3;" vertex="1" parent="fLti0G6x-53o2jMvYhwN-89">
          <mxGeometry x="340" y="340" width="40" height="40" as="geometry" />
        </mxCell>
        <mxCell id="fLti0G6x-53o2jMvYhwN-31" value="" style="endArrow=none;html=1;strokeWidth=3;dashed=1;fillColor=#e51400;strokeColor=#B20000;" edge="1" parent="fLti0G6x-53o2jMvYhwN-89">
          <mxGeometry width="50" height="50" relative="1" as="geometry">
            <mxPoint x="230" y="39.860000000000014" as="sourcePoint" />
            <mxPoint x="290" y="40" as="targetPoint" />
          </mxGeometry>
        </mxCell>
        <mxCell id="fLti0G6x-53o2jMvYhwN-32" value="" style="endArrow=none;html=1;strokeWidth=3;dashed=1;fillColor=#e51400;strokeColor=#B20000;" edge="1" parent="fLti0G6x-53o2jMvYhwN-89">
          <mxGeometry width="50" height="50" relative="1" as="geometry">
            <mxPoint x="230" y="159.86" as="sourcePoint" />
            <mxPoint x="290" y="160" as="targetPoint" />
          </mxGeometry>
        </mxCell>
        <mxCell id="fLti0G6x-53o2jMvYhwN-33" value="" style="endArrow=none;html=1;strokeWidth=3;dashed=1;fillColor=#e51400;strokeColor=#B20000;" edge="1" parent="fLti0G6x-53o2jMvYhwN-89">
          <mxGeometry width="50" height="50" relative="1" as="geometry">
            <mxPoint x="230" y="359.76" as="sourcePoint" />
            <mxPoint x="290" y="360" as="targetPoint" />
          </mxGeometry>
        </mxCell>
        <mxCell id="fLti0G6x-53o2jMvYhwN-34" value="" style="endArrow=none;html=1;strokeWidth=3;dashed=1;fillColor=#e51400;strokeColor=#B20000;" edge="1" parent="fLti0G6x-53o2jMvYhwN-89">
          <mxGeometry width="50" height="50" relative="1" as="geometry">
            <mxPoint x="40" y="230" as="sourcePoint" />
            <mxPoint x="40" y="290" as="targetPoint" />
          </mxGeometry>
        </mxCell>
        <mxCell id="fLti0G6x-53o2jMvYhwN-36" value="" style="endArrow=none;html=1;strokeWidth=3;dashed=1;fillColor=#e51400;strokeColor=#B20000;" edge="1" parent="fLti0G6x-53o2jMvYhwN-89">
          <mxGeometry width="50" height="50" relative="1" as="geometry">
            <mxPoint x="159.76" y="230" as="sourcePoint" />
            <mxPoint x="160" y="290" as="targetPoint" />
          </mxGeometry>
        </mxCell>
        <mxCell id="fLti0G6x-53o2jMvYhwN-37" value="" style="endArrow=none;html=1;strokeWidth=3;dashed=1;fillColor=#e51400;strokeColor=#B20000;" edge="1" parent="fLti0G6x-53o2jMvYhwN-89">
          <mxGeometry width="50" height="50" relative="1" as="geometry">
            <mxPoint x="359.76" y="230" as="sourcePoint" />
            <mxPoint x="360" y="290" as="targetPoint" />
          </mxGeometry>
        </mxCell>
        <mxCell id="fLti0G6x-53o2jMvYhwN-40" value="&lt;b style=&quot;font-size: 16px;&quot;&gt;1&lt;/b&gt;" style="text;html=1;align=center;verticalAlign=middle;resizable=0;points=[];autosize=1;fontSize=16;" vertex="1" parent="fLti0G6x-53o2jMvYhwN-89">
          <mxGeometry y="30" width="20" height="20" as="geometry" />
        </mxCell>
        <mxCell id="fLti0G6x-53o2jMvYhwN-42" value="&lt;b style=&quot;font-size: 16px&quot;&gt;2&lt;/b&gt;" style="text;html=1;align=center;verticalAlign=middle;resizable=0;points=[];autosize=1;fontSize=16;" vertex="1" parent="fLti0G6x-53o2jMvYhwN-89">
          <mxGeometry y="150" width="20" height="20" as="geometry" />
        </mxCell>
        <mxCell id="fLti0G6x-53o2jMvYhwN-43" value="&lt;b style=&quot;font-size: 16px&quot;&gt;x&lt;/b&gt;" style="text;html=1;align=center;verticalAlign=middle;resizable=0;points=[];autosize=1;fontSize=16;" vertex="1" parent="fLti0G6x-53o2jMvYhwN-89">
          <mxGeometry y="350" width="20" height="20" as="geometry" />
        </mxCell>
        <mxCell id="fLti0G6x-53o2jMvYhwN-44" value="&lt;b style=&quot;font-size: 16px&quot;&gt;y&lt;/b&gt;" style="text;html=1;align=center;verticalAlign=middle;resizable=0;points=[];autosize=1;fontSize=16;" vertex="1" parent="fLti0G6x-53o2jMvYhwN-89">
          <mxGeometry x="350" width="20" height="20" as="geometry" />
        </mxCell>
        <mxCell id="fLti0G6x-53o2jMvYhwN-45" value="&lt;b style=&quot;font-size: 16px;&quot;&gt;1&lt;/b&gt;" style="text;html=1;align=center;verticalAlign=middle;resizable=0;points=[];autosize=1;fontSize=16;" vertex="1" parent="fLti0G6x-53o2jMvYhwN-89">
          <mxGeometry x="30" width="20" height="20" as="geometry" />
        </mxCell>
        <mxCell id="fLti0G6x-53o2jMvYhwN-46" value="&lt;b style=&quot;font-size: 16px&quot;&gt;2&lt;/b&gt;" style="text;html=1;align=center;verticalAlign=middle;resizable=0;points=[];autosize=1;fontSize=16;" vertex="1" parent="fLti0G6x-53o2jMvYhwN-89">
          <mxGeometry x="150" width="20" height="20" as="geometry" />
        </mxCell>
        <mxCell id="fLti0G6x-53o2jMvYhwN-110" value="" style="group" vertex="1" connectable="0" parent="1">
          <mxGeometry x="560" y="120" width="380" height="380" as="geometry" />
        </mxCell>
        <mxCell id="fLti0G6x-53o2jMvYhwN-49" value="" style="ellipse;whiteSpace=wrap;html=1;aspect=fixed;fillColor=#fa6800;strokeColor=#C73500;fontColor=#ffffff;strokeWidth=3;" vertex="1" parent="fLti0G6x-53o2jMvYhwN-110">
          <mxGeometry x="20" y="20" width="40" height="40" as="geometry" />
        </mxCell>
        <mxCell id="fLti0G6x-53o2jMvYhwN-50" style="edgeStyle=orthogonalEdgeStyle;rounded=0;orthogonalLoop=1;jettySize=auto;html=1;exitX=1;exitY=0.5;exitDx=0;exitDy=0;endArrow=none;endFill=0;strokeWidth=3;fillColor=#e51400;strokeColor=#B20000;" edge="1" parent="fLti0G6x-53o2jMvYhwN-110" source="fLti0G6x-53o2jMvYhwN-51">
          <mxGeometry relative="1" as="geometry">
            <mxPoint x="220" y="40" as="targetPoint" />
          </mxGeometry>
        </mxCell>
        <mxCell id="fLti0G6x-53o2jMvYhwN-91" style="edgeStyle=none;rounded=0;orthogonalLoop=1;jettySize=auto;html=1;exitX=1;exitY=1;exitDx=0;exitDy=0;endArrow=none;endFill=0;strokeWidth=3;fontSize=16;fillColor=#e51400;strokeColor=#B20000;" edge="1" parent="fLti0G6x-53o2jMvYhwN-110" source="fLti0G6x-53o2jMvYhwN-51">
          <mxGeometry relative="1" as="geometry">
            <mxPoint x="200" y="80" as="targetPoint" />
          </mxGeometry>
        </mxCell>
        <mxCell id="fLti0G6x-53o2jMvYhwN-51" value="" style="ellipse;whiteSpace=wrap;html=1;aspect=fixed;fillColor=#fa6800;strokeColor=#C73500;fontColor=#ffffff;strokeWidth=3;" vertex="1" parent="fLti0G6x-53o2jMvYhwN-110">
          <mxGeometry x="140" y="20" width="40" height="40" as="geometry" />
        </mxCell>
        <mxCell id="fLti0G6x-53o2jMvYhwN-52" style="edgeStyle=orthogonalEdgeStyle;rounded=0;orthogonalLoop=1;jettySize=auto;html=1;exitX=1;exitY=0.5;exitDx=0;exitDy=0;entryX=0;entryY=0.5;entryDx=0;entryDy=0;fillColor=#e51400;strokeColor=#B20000;endArrow=none;endFill=0;strokeWidth=3;" edge="1" parent="fLti0G6x-53o2jMvYhwN-110" source="fLti0G6x-53o2jMvYhwN-49" target="fLti0G6x-53o2jMvYhwN-51">
          <mxGeometry relative="1" as="geometry" />
        </mxCell>
        <mxCell id="fLti0G6x-53o2jMvYhwN-53" style="edgeStyle=orthogonalEdgeStyle;rounded=0;orthogonalLoop=1;jettySize=auto;html=1;endArrow=none;endFill=0;strokeWidth=3;fillColor=#e51400;strokeColor=#B20000;" edge="1" parent="fLti0G6x-53o2jMvYhwN-110" source="fLti0G6x-53o2jMvYhwN-54">
          <mxGeometry relative="1" as="geometry">
            <mxPoint x="300" y="40" as="targetPoint" />
          </mxGeometry>
        </mxCell>
        <mxCell id="fLti0G6x-53o2jMvYhwN-93" style="edgeStyle=none;rounded=0;orthogonalLoop=1;jettySize=auto;html=1;exitX=0;exitY=1;exitDx=0;exitDy=0;endArrow=none;endFill=0;strokeWidth=3;fontSize=16;fillColor=#e51400;strokeColor=#B20000;" edge="1" parent="fLti0G6x-53o2jMvYhwN-110" source="fLti0G6x-53o2jMvYhwN-54">
          <mxGeometry relative="1" as="geometry">
            <mxPoint x="320" y="80" as="targetPoint" />
          </mxGeometry>
        </mxCell>
        <mxCell id="fLti0G6x-53o2jMvYhwN-54" value="" style="ellipse;whiteSpace=wrap;html=1;aspect=fixed;fillColor=#fa6800;strokeColor=#C73500;fontColor=#ffffff;strokeWidth=3;" vertex="1" parent="fLti0G6x-53o2jMvYhwN-110">
          <mxGeometry x="340" y="20" width="40" height="40" as="geometry" />
        </mxCell>
        <mxCell id="fLti0G6x-53o2jMvYhwN-55" style="edgeStyle=orthogonalEdgeStyle;rounded=0;orthogonalLoop=1;jettySize=auto;html=1;exitX=0.5;exitY=1;exitDx=0;exitDy=0;endArrow=none;endFill=0;strokeWidth=3;fillColor=#e51400;strokeColor=#B20000;" edge="1" parent="fLti0G6x-53o2jMvYhwN-110" source="fLti0G6x-53o2jMvYhwN-56">
          <mxGeometry relative="1" as="geometry">
            <mxPoint x="40" y="220" as="targetPoint" />
          </mxGeometry>
        </mxCell>
        <mxCell id="fLti0G6x-53o2jMvYhwN-90" style="edgeStyle=none;rounded=0;orthogonalLoop=1;jettySize=auto;html=1;exitX=1;exitY=0;exitDx=0;exitDy=0;entryX=0;entryY=1;entryDx=0;entryDy=0;endArrow=none;endFill=0;strokeWidth=3;fontSize=16;fillColor=#e51400;strokeColor=#B20000;" edge="1" parent="fLti0G6x-53o2jMvYhwN-110" source="fLti0G6x-53o2jMvYhwN-56" target="fLti0G6x-53o2jMvYhwN-51">
          <mxGeometry relative="1" as="geometry" />
        </mxCell>
        <mxCell id="fLti0G6x-53o2jMvYhwN-99" style="edgeStyle=none;rounded=0;orthogonalLoop=1;jettySize=auto;html=1;exitX=1;exitY=1;exitDx=0;exitDy=0;endArrow=none;endFill=0;strokeWidth=3;fontSize=16;fillColor=#e51400;strokeColor=#B20000;" edge="1" parent="fLti0G6x-53o2jMvYhwN-110" source="fLti0G6x-53o2jMvYhwN-56">
          <mxGeometry relative="1" as="geometry">
            <mxPoint x="80" y="200" as="targetPoint" />
          </mxGeometry>
        </mxCell>
        <mxCell id="fLti0G6x-53o2jMvYhwN-56" value="" style="ellipse;whiteSpace=wrap;html=1;aspect=fixed;fillColor=#fa6800;strokeColor=#C73500;fontColor=#ffffff;strokeWidth=3;" vertex="1" parent="fLti0G6x-53o2jMvYhwN-110">
          <mxGeometry x="20" y="140" width="40" height="40" as="geometry" />
        </mxCell>
        <mxCell id="fLti0G6x-53o2jMvYhwN-57" style="edgeStyle=orthogonalEdgeStyle;rounded=0;orthogonalLoop=1;jettySize=auto;html=1;exitX=0.5;exitY=1;exitDx=0;exitDy=0;entryX=0.5;entryY=0;entryDx=0;entryDy=0;endArrow=none;endFill=0;strokeWidth=3;fillColor=#e51400;strokeColor=#B20000;" edge="1" parent="fLti0G6x-53o2jMvYhwN-110" source="fLti0G6x-53o2jMvYhwN-49" target="fLti0G6x-53o2jMvYhwN-56">
          <mxGeometry relative="1" as="geometry" />
        </mxCell>
        <mxCell id="fLti0G6x-53o2jMvYhwN-58" style="edgeStyle=orthogonalEdgeStyle;rounded=0;orthogonalLoop=1;jettySize=auto;html=1;exitX=1;exitY=0.5;exitDx=0;exitDy=0;endArrow=none;endFill=0;strokeWidth=3;fillColor=#e51400;strokeColor=#B20000;" edge="1" parent="fLti0G6x-53o2jMvYhwN-110" source="fLti0G6x-53o2jMvYhwN-60">
          <mxGeometry relative="1" as="geometry">
            <mxPoint x="220" y="160" as="targetPoint" />
          </mxGeometry>
        </mxCell>
        <mxCell id="fLti0G6x-53o2jMvYhwN-59" style="edgeStyle=orthogonalEdgeStyle;rounded=0;orthogonalLoop=1;jettySize=auto;html=1;exitX=0.5;exitY=1;exitDx=0;exitDy=0;endArrow=none;endFill=0;strokeWidth=3;fillColor=#e51400;strokeColor=#B20000;" edge="1" parent="fLti0G6x-53o2jMvYhwN-110" source="fLti0G6x-53o2jMvYhwN-60">
          <mxGeometry relative="1" as="geometry">
            <mxPoint x="160" y="220" as="targetPoint" />
          </mxGeometry>
        </mxCell>
        <mxCell id="fLti0G6x-53o2jMvYhwN-92" style="edgeStyle=none;rounded=0;orthogonalLoop=1;jettySize=auto;html=1;exitX=1;exitY=0;exitDx=0;exitDy=0;endArrow=none;endFill=0;strokeWidth=3;fontSize=16;fillColor=#e51400;strokeColor=#B20000;" edge="1" parent="fLti0G6x-53o2jMvYhwN-110" source="fLti0G6x-53o2jMvYhwN-60">
          <mxGeometry relative="1" as="geometry">
            <mxPoint x="200" y="120" as="targetPoint" />
          </mxGeometry>
        </mxCell>
        <mxCell id="fLti0G6x-53o2jMvYhwN-97" style="edgeStyle=none;rounded=0;orthogonalLoop=1;jettySize=auto;html=1;exitX=1;exitY=1;exitDx=0;exitDy=0;endArrow=none;endFill=0;strokeWidth=3;fontSize=16;fillColor=#e51400;strokeColor=#B20000;" edge="1" parent="fLti0G6x-53o2jMvYhwN-110" source="fLti0G6x-53o2jMvYhwN-60">
          <mxGeometry relative="1" as="geometry">
            <mxPoint x="200" y="200" as="targetPoint" />
          </mxGeometry>
        </mxCell>
        <mxCell id="fLti0G6x-53o2jMvYhwN-100" style="edgeStyle=none;rounded=0;orthogonalLoop=1;jettySize=auto;html=1;exitX=0;exitY=1;exitDx=0;exitDy=0;endArrow=none;endFill=0;strokeWidth=3;fontSize=16;fillColor=#e51400;strokeColor=#B20000;" edge="1" parent="fLti0G6x-53o2jMvYhwN-110" source="fLti0G6x-53o2jMvYhwN-60">
          <mxGeometry relative="1" as="geometry">
            <mxPoint x="120" y="200" as="targetPoint" />
          </mxGeometry>
        </mxCell>
        <mxCell id="fLti0G6x-53o2jMvYhwN-60" value="" style="ellipse;whiteSpace=wrap;html=1;aspect=fixed;fillColor=#fa6800;strokeColor=#C73500;fontColor=#ffffff;strokeWidth=3;" vertex="1" parent="fLti0G6x-53o2jMvYhwN-110">
          <mxGeometry x="140" y="140" width="40" height="40" as="geometry" />
        </mxCell>
        <mxCell id="fLti0G6x-53o2jMvYhwN-61" style="edgeStyle=orthogonalEdgeStyle;rounded=0;orthogonalLoop=1;jettySize=auto;html=1;exitX=0.5;exitY=1;exitDx=0;exitDy=0;entryX=0.5;entryY=0;entryDx=0;entryDy=0;endArrow=none;endFill=0;strokeWidth=3;fillColor=#e51400;strokeColor=#B20000;" edge="1" parent="fLti0G6x-53o2jMvYhwN-110" source="fLti0G6x-53o2jMvYhwN-51" target="fLti0G6x-53o2jMvYhwN-60">
          <mxGeometry relative="1" as="geometry" />
        </mxCell>
        <mxCell id="fLti0G6x-53o2jMvYhwN-88" style="rounded=0;orthogonalLoop=1;jettySize=auto;html=1;exitX=1;exitY=1;exitDx=0;exitDy=0;entryX=0;entryY=0;entryDx=0;entryDy=0;endArrow=none;endFill=0;strokeWidth=3;fontSize=16;fillColor=#e51400;strokeColor=#B20000;" edge="1" parent="fLti0G6x-53o2jMvYhwN-110" source="fLti0G6x-53o2jMvYhwN-49" target="fLti0G6x-53o2jMvYhwN-60">
          <mxGeometry relative="1" as="geometry" />
        </mxCell>
        <mxCell id="fLti0G6x-53o2jMvYhwN-62" style="edgeStyle=orthogonalEdgeStyle;rounded=0;orthogonalLoop=1;jettySize=auto;html=1;exitX=1;exitY=0.5;exitDx=0;exitDy=0;entryX=0;entryY=0.5;entryDx=0;entryDy=0;endArrow=none;endFill=0;strokeWidth=3;fillColor=#e51400;strokeColor=#B20000;" edge="1" parent="fLti0G6x-53o2jMvYhwN-110" source="fLti0G6x-53o2jMvYhwN-56" target="fLti0G6x-53o2jMvYhwN-60">
          <mxGeometry relative="1" as="geometry" />
        </mxCell>
        <mxCell id="fLti0G6x-53o2jMvYhwN-63" style="edgeStyle=orthogonalEdgeStyle;rounded=0;orthogonalLoop=1;jettySize=auto;html=1;exitX=0;exitY=0.5;exitDx=0;exitDy=0;endArrow=none;endFill=0;strokeWidth=3;fillColor=#e51400;strokeColor=#B20000;" edge="1" parent="fLti0G6x-53o2jMvYhwN-110" source="fLti0G6x-53o2jMvYhwN-65">
          <mxGeometry relative="1" as="geometry">
            <mxPoint x="300" y="160" as="targetPoint" />
          </mxGeometry>
        </mxCell>
        <mxCell id="fLti0G6x-53o2jMvYhwN-64" style="edgeStyle=orthogonalEdgeStyle;rounded=0;orthogonalLoop=1;jettySize=auto;html=1;endArrow=none;endFill=0;strokeWidth=3;fillColor=#e51400;strokeColor=#B20000;" edge="1" parent="fLti0G6x-53o2jMvYhwN-110" source="fLti0G6x-53o2jMvYhwN-65">
          <mxGeometry relative="1" as="geometry">
            <mxPoint x="360" y="220" as="targetPoint" />
          </mxGeometry>
        </mxCell>
        <mxCell id="fLti0G6x-53o2jMvYhwN-94" style="edgeStyle=none;rounded=0;orthogonalLoop=1;jettySize=auto;html=1;exitX=0;exitY=0;exitDx=0;exitDy=0;endArrow=none;endFill=0;strokeWidth=3;fontSize=16;fillColor=#e51400;strokeColor=#B20000;" edge="1" parent="fLti0G6x-53o2jMvYhwN-110" source="fLti0G6x-53o2jMvYhwN-65">
          <mxGeometry relative="1" as="geometry">
            <mxPoint x="320" y="120" as="targetPoint" />
          </mxGeometry>
        </mxCell>
        <mxCell id="fLti0G6x-53o2jMvYhwN-96" style="edgeStyle=none;rounded=0;orthogonalLoop=1;jettySize=auto;html=1;exitX=0;exitY=1;exitDx=0;exitDy=0;endArrow=none;endFill=0;strokeWidth=3;fontSize=16;fillColor=#e51400;strokeColor=#B20000;" edge="1" parent="fLti0G6x-53o2jMvYhwN-110" source="fLti0G6x-53o2jMvYhwN-65">
          <mxGeometry relative="1" as="geometry">
            <mxPoint x="320" y="200" as="targetPoint" />
          </mxGeometry>
        </mxCell>
        <mxCell id="fLti0G6x-53o2jMvYhwN-65" value="" style="ellipse;whiteSpace=wrap;html=1;aspect=fixed;fillColor=#fa6800;strokeColor=#C73500;fontColor=#ffffff;strokeWidth=3;" vertex="1" parent="fLti0G6x-53o2jMvYhwN-110">
          <mxGeometry x="340" y="140" width="40" height="40" as="geometry" />
        </mxCell>
        <mxCell id="fLti0G6x-53o2jMvYhwN-66" style="edgeStyle=orthogonalEdgeStyle;rounded=0;orthogonalLoop=1;jettySize=auto;html=1;entryX=0.5;entryY=0;entryDx=0;entryDy=0;endArrow=none;endFill=0;strokeWidth=3;fillColor=#e51400;strokeColor=#B20000;" edge="1" parent="fLti0G6x-53o2jMvYhwN-110" source="fLti0G6x-53o2jMvYhwN-54" target="fLti0G6x-53o2jMvYhwN-65">
          <mxGeometry relative="1" as="geometry" />
        </mxCell>
        <mxCell id="fLti0G6x-53o2jMvYhwN-67" style="edgeStyle=orthogonalEdgeStyle;rounded=0;orthogonalLoop=1;jettySize=auto;html=1;endArrow=none;endFill=0;strokeWidth=3;fillColor=#e51400;strokeColor=#B20000;" edge="1" parent="fLti0G6x-53o2jMvYhwN-110" source="fLti0G6x-53o2jMvYhwN-68">
          <mxGeometry relative="1" as="geometry">
            <mxPoint x="40" y="300" as="targetPoint" />
          </mxGeometry>
        </mxCell>
        <mxCell id="fLti0G6x-53o2jMvYhwN-101" style="edgeStyle=none;rounded=0;orthogonalLoop=1;jettySize=auto;html=1;exitX=1;exitY=0;exitDx=0;exitDy=0;endArrow=none;endFill=0;strokeWidth=3;fontSize=16;fillColor=#e51400;strokeColor=#B20000;" edge="1" parent="fLti0G6x-53o2jMvYhwN-110" source="fLti0G6x-53o2jMvYhwN-68">
          <mxGeometry relative="1" as="geometry">
            <mxPoint x="80" y="320" as="targetPoint" />
          </mxGeometry>
        </mxCell>
        <mxCell id="fLti0G6x-53o2jMvYhwN-68" value="" style="ellipse;whiteSpace=wrap;html=1;aspect=fixed;fillColor=#fa6800;strokeColor=#C73500;fontColor=#ffffff;strokeWidth=3;" vertex="1" parent="fLti0G6x-53o2jMvYhwN-110">
          <mxGeometry x="20" y="340" width="40" height="40" as="geometry" />
        </mxCell>
        <mxCell id="fLti0G6x-53o2jMvYhwN-69" style="edgeStyle=orthogonalEdgeStyle;rounded=0;orthogonalLoop=1;jettySize=auto;html=1;exitX=1;exitY=0.5;exitDx=0;exitDy=0;endArrow=none;endFill=0;strokeWidth=3;fillColor=#e51400;strokeColor=#B20000;" edge="1" parent="fLti0G6x-53o2jMvYhwN-110" source="fLti0G6x-53o2jMvYhwN-71">
          <mxGeometry relative="1" as="geometry">
            <mxPoint x="220" y="360" as="targetPoint" />
          </mxGeometry>
        </mxCell>
        <mxCell id="fLti0G6x-53o2jMvYhwN-70" style="edgeStyle=orthogonalEdgeStyle;rounded=0;orthogonalLoop=1;jettySize=auto;html=1;endArrow=none;endFill=0;strokeWidth=3;fillColor=#e51400;strokeColor=#B20000;" edge="1" parent="fLti0G6x-53o2jMvYhwN-110" source="fLti0G6x-53o2jMvYhwN-71">
          <mxGeometry relative="1" as="geometry">
            <mxPoint x="160" y="300" as="targetPoint" />
          </mxGeometry>
        </mxCell>
        <mxCell id="fLti0G6x-53o2jMvYhwN-98" style="edgeStyle=none;rounded=0;orthogonalLoop=1;jettySize=auto;html=1;exitX=1;exitY=0;exitDx=0;exitDy=0;endArrow=none;endFill=0;strokeWidth=3;fontSize=16;fillColor=#e51400;strokeColor=#B20000;" edge="1" parent="fLti0G6x-53o2jMvYhwN-110" source="fLti0G6x-53o2jMvYhwN-71">
          <mxGeometry relative="1" as="geometry">
            <mxPoint x="200" y="320" as="targetPoint" />
          </mxGeometry>
        </mxCell>
        <mxCell id="fLti0G6x-53o2jMvYhwN-102" style="edgeStyle=none;rounded=0;orthogonalLoop=1;jettySize=auto;html=1;exitX=0;exitY=0;exitDx=0;exitDy=0;endArrow=none;endFill=0;strokeWidth=3;fontSize=16;fillColor=#e51400;strokeColor=#B20000;" edge="1" parent="fLti0G6x-53o2jMvYhwN-110" source="fLti0G6x-53o2jMvYhwN-71">
          <mxGeometry relative="1" as="geometry">
            <mxPoint x="120" y="320" as="targetPoint" />
          </mxGeometry>
        </mxCell>
        <mxCell id="fLti0G6x-53o2jMvYhwN-71" value="" style="ellipse;whiteSpace=wrap;html=1;aspect=fixed;fillColor=#fa6800;strokeColor=#C73500;fontColor=#ffffff;strokeWidth=3;" vertex="1" parent="fLti0G6x-53o2jMvYhwN-110">
          <mxGeometry x="140" y="340" width="40" height="40" as="geometry" />
        </mxCell>
        <mxCell id="fLti0G6x-53o2jMvYhwN-72" style="edgeStyle=orthogonalEdgeStyle;rounded=0;orthogonalLoop=1;jettySize=auto;html=1;entryX=0;entryY=0.5;entryDx=0;entryDy=0;endArrow=none;endFill=0;strokeWidth=3;fillColor=#e51400;strokeColor=#B20000;" edge="1" parent="fLti0G6x-53o2jMvYhwN-110" source="fLti0G6x-53o2jMvYhwN-68" target="fLti0G6x-53o2jMvYhwN-71">
          <mxGeometry relative="1" as="geometry" />
        </mxCell>
        <mxCell id="fLti0G6x-53o2jMvYhwN-73" style="edgeStyle=orthogonalEdgeStyle;rounded=0;orthogonalLoop=1;jettySize=auto;html=1;exitX=0;exitY=0.5;exitDx=0;exitDy=0;endArrow=none;endFill=0;strokeWidth=3;fillColor=#e51400;strokeColor=#B20000;" edge="1" parent="fLti0G6x-53o2jMvYhwN-110" source="fLti0G6x-53o2jMvYhwN-75">
          <mxGeometry relative="1" as="geometry">
            <mxPoint x="300" y="360" as="targetPoint" />
          </mxGeometry>
        </mxCell>
        <mxCell id="fLti0G6x-53o2jMvYhwN-74" style="edgeStyle=orthogonalEdgeStyle;rounded=0;orthogonalLoop=1;jettySize=auto;html=1;exitX=0.5;exitY=0;exitDx=0;exitDy=0;endArrow=none;endFill=0;strokeWidth=3;fillColor=#e51400;strokeColor=#B20000;" edge="1" parent="fLti0G6x-53o2jMvYhwN-110" source="fLti0G6x-53o2jMvYhwN-75">
          <mxGeometry relative="1" as="geometry">
            <mxPoint x="360" y="300" as="targetPoint" />
          </mxGeometry>
        </mxCell>
        <mxCell id="fLti0G6x-53o2jMvYhwN-95" style="edgeStyle=none;rounded=0;orthogonalLoop=1;jettySize=auto;html=1;exitX=0;exitY=0;exitDx=0;exitDy=0;endArrow=none;endFill=0;strokeWidth=3;fontSize=16;fillColor=#e51400;strokeColor=#B20000;" edge="1" parent="fLti0G6x-53o2jMvYhwN-110" source="fLti0G6x-53o2jMvYhwN-75">
          <mxGeometry relative="1" as="geometry">
            <mxPoint x="320" y="320" as="targetPoint" />
          </mxGeometry>
        </mxCell>
        <mxCell id="fLti0G6x-53o2jMvYhwN-75" value="" style="ellipse;whiteSpace=wrap;html=1;aspect=fixed;fillColor=#fa6800;strokeColor=#C73500;fontColor=#ffffff;strokeWidth=3;" vertex="1" parent="fLti0G6x-53o2jMvYhwN-110">
          <mxGeometry x="340" y="340" width="40" height="40" as="geometry" />
        </mxCell>
        <mxCell id="fLti0G6x-53o2jMvYhwN-76" value="" style="endArrow=none;html=1;strokeWidth=3;dashed=1;fillColor=#e51400;strokeColor=#B20000;" edge="1" parent="fLti0G6x-53o2jMvYhwN-110">
          <mxGeometry width="50" height="50" relative="1" as="geometry">
            <mxPoint x="230" y="39.860000000000014" as="sourcePoint" />
            <mxPoint x="290" y="40" as="targetPoint" />
          </mxGeometry>
        </mxCell>
        <mxCell id="fLti0G6x-53o2jMvYhwN-77" value="" style="endArrow=none;html=1;strokeWidth=3;dashed=1;fillColor=#e51400;strokeColor=#B20000;" edge="1" parent="fLti0G6x-53o2jMvYhwN-110">
          <mxGeometry width="50" height="50" relative="1" as="geometry">
            <mxPoint x="230" y="159.86" as="sourcePoint" />
            <mxPoint x="290" y="160" as="targetPoint" />
          </mxGeometry>
        </mxCell>
        <mxCell id="fLti0G6x-53o2jMvYhwN-78" value="" style="endArrow=none;html=1;strokeWidth=3;dashed=1;fillColor=#e51400;strokeColor=#B20000;" edge="1" parent="fLti0G6x-53o2jMvYhwN-110">
          <mxGeometry width="50" height="50" relative="1" as="geometry">
            <mxPoint x="230" y="359.76" as="sourcePoint" />
            <mxPoint x="290" y="360" as="targetPoint" />
          </mxGeometry>
        </mxCell>
        <mxCell id="fLti0G6x-53o2jMvYhwN-79" value="" style="endArrow=none;html=1;strokeWidth=3;dashed=1;fillColor=#e51400;strokeColor=#B20000;" edge="1" parent="fLti0G6x-53o2jMvYhwN-110">
          <mxGeometry width="50" height="50" relative="1" as="geometry">
            <mxPoint x="40" y="230" as="sourcePoint" />
            <mxPoint x="40" y="290" as="targetPoint" />
          </mxGeometry>
        </mxCell>
        <mxCell id="fLti0G6x-53o2jMvYhwN-80" value="" style="endArrow=none;html=1;strokeWidth=3;dashed=1;fillColor=#e51400;strokeColor=#B20000;" edge="1" parent="fLti0G6x-53o2jMvYhwN-110">
          <mxGeometry width="50" height="50" relative="1" as="geometry">
            <mxPoint x="159.76" y="230" as="sourcePoint" />
            <mxPoint x="160" y="290" as="targetPoint" />
          </mxGeometry>
        </mxCell>
        <mxCell id="fLti0G6x-53o2jMvYhwN-81" value="" style="endArrow=none;html=1;strokeWidth=3;dashed=1;fillColor=#e51400;strokeColor=#B20000;" edge="1" parent="fLti0G6x-53o2jMvYhwN-110">
          <mxGeometry width="50" height="50" relative="1" as="geometry">
            <mxPoint x="359.76" y="230" as="sourcePoint" />
            <mxPoint x="360" y="290" as="targetPoint" />
          </mxGeometry>
        </mxCell>
        <mxCell id="fLti0G6x-53o2jMvYhwN-82" value="&lt;b style=&quot;font-size: 16px;&quot;&gt;1&lt;/b&gt;" style="text;html=1;align=center;verticalAlign=middle;resizable=0;points=[];autosize=1;fontSize=16;" vertex="1" parent="fLti0G6x-53o2jMvYhwN-110">
          <mxGeometry y="30" width="20" height="20" as="geometry" />
        </mxCell>
        <mxCell id="fLti0G6x-53o2jMvYhwN-83" value="&lt;b style=&quot;font-size: 16px&quot;&gt;2&lt;/b&gt;" style="text;html=1;align=center;verticalAlign=middle;resizable=0;points=[];autosize=1;fontSize=16;" vertex="1" parent="fLti0G6x-53o2jMvYhwN-110">
          <mxGeometry y="150" width="20" height="20" as="geometry" />
        </mxCell>
        <mxCell id="fLti0G6x-53o2jMvYhwN-84" value="&lt;b style=&quot;font-size: 16px&quot;&gt;x&lt;/b&gt;" style="text;html=1;align=center;verticalAlign=middle;resizable=0;points=[];autosize=1;fontSize=16;" vertex="1" parent="fLti0G6x-53o2jMvYhwN-110">
          <mxGeometry y="350" width="20" height="20" as="geometry" />
        </mxCell>
        <mxCell id="fLti0G6x-53o2jMvYhwN-85" value="&lt;b style=&quot;font-size: 16px&quot;&gt;y&lt;/b&gt;" style="text;html=1;align=center;verticalAlign=middle;resizable=0;points=[];autosize=1;fontSize=16;" vertex="1" parent="fLti0G6x-53o2jMvYhwN-110">
          <mxGeometry x="350" width="20" height="20" as="geometry" />
        </mxCell>
        <mxCell id="fLti0G6x-53o2jMvYhwN-86" value="&lt;b style=&quot;font-size: 16px;&quot;&gt;1&lt;/b&gt;" style="text;html=1;align=center;verticalAlign=middle;resizable=0;points=[];autosize=1;fontSize=16;" vertex="1" parent="fLti0G6x-53o2jMvYhwN-110">
          <mxGeometry x="30" width="20" height="20" as="geometry" />
        </mxCell>
        <mxCell id="fLti0G6x-53o2jMvYhwN-87" value="&lt;b style=&quot;font-size: 16px&quot;&gt;2&lt;/b&gt;" style="text;html=1;align=center;verticalAlign=middle;resizable=0;points=[];autosize=1;fontSize=16;" vertex="1" parent="fLti0G6x-53o2jMvYhwN-110">
          <mxGeometry x="150" width="20" height="20" as="geometry" />
        </mxCell>
        <mxCell id="fLti0G6x-53o2jMvYhwN-105" value="" style="endArrow=none;html=1;strokeWidth=3;dashed=1;fillColor=#e51400;strokeColor=#B20000;" edge="1" parent="fLti0G6x-53o2jMvYhwN-110">
          <mxGeometry width="50" height="50" relative="1" as="geometry">
            <mxPoint x="220" y="220" as="sourcePoint" />
            <mxPoint x="240" y="240" as="targetPoint" />
          </mxGeometry>
        </mxCell>
        <mxCell id="fLti0G6x-53o2jMvYhwN-106" value="" style="endArrow=none;html=1;strokeWidth=3;dashed=1;fillColor=#e51400;strokeColor=#B20000;" edge="1" parent="fLti0G6x-53o2jMvYhwN-110">
          <mxGeometry width="50" height="50" relative="1" as="geometry">
            <mxPoint x="280" y="280" as="sourcePoint" />
            <mxPoint x="300" y="300" as="targetPoint" />
          </mxGeometry>
        </mxCell>
        <mxCell id="fLti0G6x-53o2jMvYhwN-107" value="" style="endArrow=none;html=1;strokeWidth=3;dashed=1;fillColor=#e51400;strokeColor=#B20000;" edge="1" parent="fLti0G6x-53o2jMvYhwN-110">
          <mxGeometry width="50" height="50" relative="1" as="geometry">
            <mxPoint x="240" y="280" as="sourcePoint" />
            <mxPoint x="220" y="300" as="targetPoint" />
          </mxGeometry>
        </mxCell>
        <mxCell id="fLti0G6x-53o2jMvYhwN-108" value="" style="endArrow=none;html=1;strokeWidth=3;dashed=1;fillColor=#e51400;strokeColor=#B20000;" edge="1" parent="fLti0G6x-53o2jMvYhwN-110">
          <mxGeometry width="50" height="50" relative="1" as="geometry">
            <mxPoint x="280" y="240" as="sourcePoint" />
            <mxPoint x="300" y="220" as="targetPoint" />
          </mxGeometry>
        </mxCell>
        <mxCell id="fLti0G6x-53o2jMvYhwN-109" value="" style="endArrow=none;html=1;strokeWidth=3;dashed=1;dashPattern=1 4;fillColor=#e51400;strokeColor=#B20000;" edge="1" parent="fLti0G6x-53o2jMvYhwN-110">
          <mxGeometry width="50" height="50" relative="1" as="geometry">
            <mxPoint x="261" y="259" as="sourcePoint" />
            <mxPoint x="251" y="269" as="targetPoint" />
          </mxGeometry>
        </mxCell>
      </root>
    </mxGraphModel>
  </diagram>
</mxfile>
